HIERARCHY
ROOT pelvis
{
	OFFSET 0.003123 -0.351407 0.012037
	CHANNELS 6 Xposition Yposition Zposition Zrotation Yrotation Xrotation 
	JOINT left_hip
	{
		OFFSET 0.058189 -0.092763 -0.026001
		CHANNELS 3 Zrotation Yrotation Xrotation
		JOINT left_knee
		{
			OFFSET 0.054695 -0.378753 -0.009396
			CHANNELS 3 Zrotation Yrotation Xrotation
			JOINT left_ankle
			{
				OFFSET -0.043453 -0.403059 -0.031876
				CHANNELS 3 Zrotation Yrotation Xrotation
				JOINT left_foot
				{
					OFFSET 0.047257 -0.057997 0.118216
					CHANNELS 3 Zrotation Yrotation Xrotation
					End Site
					{
						OFFSET 0.000000 0.000000 0.000000
					}
				}
			}
		}
	}
	JOINT right_hip
	{
		OFFSET -0.063267 -0.103908 -0.021250
		CHANNELS 3 Zrotation Yrotation Xrotation
		JOINT right_knee
		{
			OFFSET -0.044210 -0.362380 -0.016824
			CHANNELS 3 Zrotation Yrotation Xrotation
			JOINT right_ankle
			{
				OFFSET 0.015417 -0.410728 -0.020192
				CHANNELS 3 Zrotation Yrotation Xrotation
				JOINT right_foot
				{
					OFFSET -0.038812 -0.058328 0.119049
					CHANNELS 3 Zrotation Yrotation Xrotation
					End Site
					{
						OFFSET 0.000000 0.000000 0.000000
					}
				}
			}
		}
	}
	JOINT spine_1
	{
		OFFSET -0.002763 0.109891 -0.027618
		CHANNELS 3 Zrotation Yrotation Xrotation
		JOINT spine_2
		{
			OFFSET 0.009448 0.131853 -0.005940
			CHANNELS 3 Zrotation Yrotation Xrotation
			JOINT spine_3
			{
				OFFSET -0.011330 0.052235 0.028447
				CHANNELS 3 Zrotation Yrotation Xrotation
				JOINT neck
				{
					OFFSET -0.012164 0.165167 -0.031615
					CHANNELS 3 Zrotation Yrotation Xrotation
					JOINT head
					{
						OFFSET 0.024783 0.160452 0.020737
						CHANNELS 3 Zrotation Yrotation Xrotation
						End Site
						{
							OFFSET 0.000000 0.000000 0.000000
						}
					}
				}
				JOINT left_collar
				{
					OFFSET 0.046364 0.084944 -0.007220
					CHANNELS 3 Zrotation Yrotation Xrotation
					JOINT left_shoulder
					{
						OFFSET 0.119239 0.057728 -0.015461
						CHANNELS 3 Zrotation Yrotation Xrotation
						JOINT left_elbow
						{
							OFFSET 0.254123 -0.072151 -0.042459
							CHANNELS 3 Zrotation Yrotation Xrotation
							JOINT left_wrist
							{
								OFFSET 0.251987 0.023221 -0.002472
								CHANNELS 3 Zrotation Yrotation Xrotation
								JOINT left_index_1
								{
									OFFSET 0.101902 -0.008688 0.019351
									CHANNELS 3 Zrotation Yrotation Xrotation
									JOINT left_index_2
									{
										OFFSET 0.030149 -0.011154 0.001151
										CHANNELS 3 Zrotation Yrotation Xrotation
										JOINT left_index_3
										{
											OFFSET 0.006504 -0.021577 -0.002433
											CHANNELS 3 Zrotation Yrotation Xrotation
											End Site
											{
												OFFSET 0.000000 0.000000 0.000000
											}
										}
									}
								}
								JOINT left_middle_1
								{
									OFFSET 0.109398 -0.006328 -0.003981
									CHANNELS 3 Zrotation Yrotation Xrotation
									JOINT left_middle_2
									{
										OFFSET 0.026472 -0.015218 -0.004641
										CHANNELS 3 Zrotation Yrotation Xrotation
										JOINT left_middle_3
										{
											OFFSET 0.005022 -0.023347 -0.001911
											CHANNELS 3 Zrotation Yrotation Xrotation
											End Site
											{
												OFFSET 0.000000 0.000000 0.000000
											}
										}
									}
								}
								JOINT left_pinky_1
								{
									OFFSET 0.084047 -0.014539 -0.043750
									CHANNELS 3 Zrotation Yrotation Xrotation
									JOINT left_pinky_2
									{
										OFFSET 0.012124 -0.014448 -0.005375
										CHANNELS 3 Zrotation Yrotation Xrotation
										JOINT left_pinky_3
										{
											OFFSET 0.003798 -0.018853 0.000167
											CHANNELS 3 Zrotation Yrotation Xrotation
											End Site
											{
												OFFSET 0.000000 0.000000 0.000000
											}
										}
									}
								}
								JOINT left_ring_1
								{
									OFFSET 0.097444 -0.009268 -0.027345
									CHANNELS 3 Zrotation Yrotation Xrotation
									JOINT left_ring_2
									{
										OFFSET 0.023561 -0.016057 -0.001895
										CHANNELS 3 Zrotation Yrotation Xrotation
										JOINT left_ring_3
										{
											OFFSET 0.004257 -0.023548 0.000814
											CHANNELS 3 Zrotation Yrotation Xrotation
											End Site
											{
												OFFSET 0.000000 0.000000 0.000000
											}
										}
									}
								}
								JOINT left_thumb_1
								{
									OFFSET 0.040636 -0.017977 0.025611
									CHANNELS 3 Zrotation Yrotation Xrotation
									JOINT left_thumb_2
									{
										OFFSET 0.021637 -0.017639 0.011623
										CHANNELS 3 Zrotation Yrotation Xrotation
										JOINT left_thumb_3
										{
											OFFSET 0.024002 -0.008356 0.006548
											CHANNELS 3 Zrotation Yrotation Xrotation
											End Site
											{
												OFFSET 0.000000 0.000000 0.000000
											}
										}
									}
								}
							}
						}
					}
				}
				JOINT right_collar
				{
					OFFSET -0.047695 0.084339 -0.013400
					CHANNELS 3 Zrotation Yrotation Xrotation
					JOINT right_shoulder
					{
						OFFSET -0.102578 0.053524 -0.012669
						CHANNELS 3 Zrotation Yrotation Xrotation
						JOINT right_elbow
						{
							OFFSET -0.271150 -0.036492 -0.026467
							CHANNELS 3 Zrotation Yrotation Xrotation
							JOINT right_wrist
							{
								OFFSET -0.249267 -0.004533 -0.015325
								CHANNELS 3 Zrotation Yrotation Xrotation
								JOINT right_index_1
								{
									OFFSET -0.099881 -0.011783 0.019600
									CHANNELS 3 Zrotation Yrotation Xrotation
									JOINT right_index_2
									{
										OFFSET -0.030148 -0.011154 0.001151
										CHANNELS 3 Zrotation Yrotation Xrotation
										JOINT right_index_3
										{
											OFFSET -0.006505 -0.021577 -0.002432
											CHANNELS 3 Zrotation Yrotation Xrotation
											End Site
											{
												OFFSET 0.000000 0.000000 0.000000
											}
										}
									}
								}
								JOINT right_middle_1
								{
									OFFSET -0.107376 -0.009422 -0.003734
									CHANNELS 3 Zrotation Yrotation Xrotation
									JOINT right_middle_2
									{
										OFFSET -0.026472 -0.015218 -0.004641
										CHANNELS 3 Zrotation Yrotation Xrotation
										JOINT right_middle_3
										{
											OFFSET -0.005022 -0.023347 -0.001911
											CHANNELS 3 Zrotation Yrotation Xrotation
											End Site
											{
												OFFSET 0.000000 0.000000 0.000000
											}
										}
									}
								}
								JOINT right_pinky_1
								{
									OFFSET -0.082027 -0.017634 -0.043503
									CHANNELS 3 Zrotation Yrotation Xrotation
									JOINT right_pinky_2
									{
										OFFSET -0.012123 -0.014448 -0.005374
										CHANNELS 3 Zrotation Yrotation Xrotation
										JOINT right_pinky_3
										{
											OFFSET -0.003798 -0.018852 0.000167
											CHANNELS 3 Zrotation Yrotation Xrotation
											End Site
											{
												OFFSET 0.000000 0.000000 0.000000
											}
										}
									}
								}
								JOINT right_ring_1
								{
									OFFSET -0.095423 -0.012362 -0.027099
									CHANNELS 3 Zrotation Yrotation Xrotation
									JOINT right_ring_2
									{
										OFFSET -0.023561 -0.016057 -0.001895
										CHANNELS 3 Zrotation Yrotation Xrotation
										JOINT right_ring_3
										{
											OFFSET -0.004257 -0.023548 0.000816
											CHANNELS 3 Zrotation Yrotation Xrotation
											End Site
											{
												OFFSET 0.000000 0.000000 0.000000
											}
										}
									}
								}
								JOINT right_thumb_1
								{
									OFFSET -0.038613 -0.021074 0.025861
									CHANNELS 3 Zrotation Yrotation Xrotation
									JOINT right_thumb_2
									{
										OFFSET -0.021636 -0.017639 0.011623
										CHANNELS 3 Zrotation Yrotation Xrotation
										JOINT right_thumb_3
										{
											OFFSET -0.024004 -0.008353 0.006547
											CHANNELS 3 Zrotation Yrotation Xrotation
											End Site
											{
												OFFSET 0.000000 0.000000 0.000000
											}
										}
									}
								}
							}
						}
					}
				}
			}
		}
	}
}
MOTION
Frames: 5
Frame Time: 0.050000
-0.025414 0.719330 -0.003372 4.803823 32.978658 -22.863964 3.065859 -8.250260 -33.405055 -28.456213 0.626634 39.690081 -1.143815 -1.544433 0.896147 0.000000 0.000000 0.000000 -32.168160 -15.056280 -32.071970 19.017560 -15.735331 54.040190 2.838924 6.030016 -1.414597 0.000000 0.000000 0.000000 -6.109055 -15.539076 80.816964 -12.073350 0.245837 -24.896059 9.399232 15.321838 12.320988 1.940188 -0.288030 0.536411 0.000000 0.000000 0.000000 1.754245 -17.024146 8.185238 -11.011730 -56.741224 -19.800954 22.125378 -75.064239 -13.416251 7.505734 -10.668084 -7.614602 -15.224317 0.805189 0.956588 -6.789225 -1.677564 -7.299052 0.000000 0.000000 0.000000 -11.693594 -6.078338 -4.287278 1.779852 -0.687153 -3.402330 0.000000 0.000000 0.000000 22.852903 -14.292942 -14.976487 1.693739 2.687528 13.075959 0.000000 0.000000 0.000000 0.259376 -5.508022 -3.686513 6.668826 1.032650 5.236535 0.000000 0.000000 0.000000 6.059948 14.733223 9.606847 -16.841860 -5.493001 3.082747 0.000000 0.000000 0.000000 -9.644819 11.685255 4.290147 -10.555762 46.685922 -6.490773 -62.740408 24.504210 -7.291381 -26.838659 5.540542 -62.073098 11.133131 16.995464 3.753595 100.424341 -4.040006 -26.830338 0.000000 0.000000 0.000000 41.758181 44.349774 7.314197 31.880960 27.111193 -56.091820 0.000000 0.000000 0.000000 5.806597 37.428829 -34.906270 4.851213 2.327026 -6.753406 0.000000 0.000000 0.000000 36.110124 44.582673 -0.279606 8.002450 17.350857 -39.960818 0.000000 0.000000 0.000000 -47.177021 -10.058765 -4.984385 27.505593 7.723575 6.845871 0.000000 0.000000 0.000000 
-0.025649 0.719330 -0.002052 4.673805 32.909577 -23.046799 3.257360 -8.146952 -33.265658 -28.551365 0.668559 39.796961 -1.063644 -1.587064 0.707729 0.000000 0.000000 0.000000 -32.019129 -14.875572 -31.915203 19.069867 -15.804315 54.066099 2.691246 5.955986 -1.721315 0.000000 0.000000 0.000000 -5.930062 -15.486778 80.601721 -12.027342 0.359193 -24.559058 9.184621 15.325247 12.159858 2.125081 -0.368004 0.779416 0.000000 0.000000 0.000000 1.650113 -17.158691 8.233003 -11.173782 -56.679249 -19.681577 21.869388 -75.018659 -13.206442 7.365535 -10.772569 -7.521149 -15.342169 0.830880 0.963978 -7.598148 -1.389509 -6.478259 0.000000 0.000000 0.000000 -11.780549 -6.041765 -4.284276 1.669854 -0.675986 -3.345699 0.000000 0.000000 0.000000 22.881884 -14.295017 -14.946828 1.554171 2.698777 13.086982 0.000000 0.000000 0.000000 0.233026 -5.489617 -3.674440 6.531442 1.035004 5.296334 0.000000 0.000000 0.000000 5.953526 14.742043 9.681331 -16.523894 -4.967413 3.103600 0.000000 0.000000 0.000000 -9.350843 11.795168 4.394594 -10.615876 46.691582 -6.539440 -63.082481 24.889343 -7.620786 -26.189655 5.507654 -61.669700 11.569546 16.881286 3.793773 106.630053 -11.599452 -29.506059 0.000000 0.000000 0.000000 42.626569 46.168443 8.266617 27.839846 25.265214 -57.725091 0.000000 0.000000 0.000000 5.843893 37.115875 -34.744595 4.894492 2.243574 -6.529149 0.000000 0.000000 0.000000 37.311104 45.994375 -0.137203 7.959470 17.064810 -39.610939 0.000000 0.000000 0.000000 -47.948605 -9.894240 -5.195752 28.842950 7.265901 7.570339 0.000000 0.000000 0.000000 
-0.025885 0.719330 -0.002052 4.907646 33.151716 -22.839188 2.965600 -8.290302 -33.391957 -28.530580 0.610254 39.827819 -1.135598 -1.562089 0.864254 0.000000 0.000000 0.000000 -32.285821 -15.142875 -31.966503 18.994266 -15.770489 54.094984 2.752418 5.929239 -1.519252 0.000000 0.000000 0.000000 -6.120173 -15.586572 80.789017 -12.337082 0.201500 -25.352233 9.834923 14.903961 12.923694 1.688745 -0.232077 0.450646 0.000000 0.000000 0.000000 1.261687 -16.753578 7.999233 -11.088899 -56.735880 -19.663822 21.202455 -75.164528 -12.654231 7.456232 -10.623841 -7.431363 -15.249459 0.854047 0.962657 -7.375078 -1.632525 -7.201223 0.000000 0.000000 0.000000 -11.951749 -6.086690 -4.313809 1.798326 -0.663557 -3.266651 0.000000 0.000000 0.000000 23.070294 -14.261520 -14.806196 1.088386 2.681635 12.790010 0.000000 0.000000 0.000000 0.123490 -5.523016 -3.692682 6.433220 1.032519 5.300261 0.000000 0.000000 0.000000 6.100543 14.907310 9.784127 -16.872189 -5.689976 3.054472 0.000000 0.000000 0.000000 -9.815228 11.999089 4.399276 -10.901381 46.801602 -6.663771 -63.137514 24.650464 -7.524809 -26.333618 5.421610 -62.096533 12.467412 17.144540 4.117537 103.968332 -7.630600 -29.154925 0.000000 0.000000 0.000000 44.634879 46.640971 9.231799 28.947428 24.655707 -56.725148 0.000000 0.000000 0.000000 6.141229 37.432316 -34.671857 4.167023 2.256644 -6.582752 0.000000 0.000000 0.000000 37.716644 46.244163 0.262513 6.555207 16.307318 -39.412475 0.000000 0.000000 0.000000 -47.745663 -10.411007 -4.637194 29.308324 9.020740 7.402948 0.000000 0.000000 0.000000 
-0.025885 0.719330 -0.002052 4.949879 33.149333 -22.833352 2.939617 -8.295039 -33.384346 -28.481232 0.597707 39.829303 -1.228957 -1.712264 0.904579 0.000000 0.000000 0.000000 -32.271409 -15.152822 -32.012218 18.880993 -15.720597 54.199942 2.741624 6.010157 -1.665459 0.000000 0.000000 0.000000 -6.169499 -15.547488 80.803380 -12.002307 0.243501 -24.859893 9.277103 15.357302 12.365925 2.103951 -0.316234 0.552489 0.000000 0.000000 0.000000 1.543065 -16.853237 8.081833 -10.875072 -56.783189 -19.868545 20.979705 -75.243930 -12.590036 7.535383 -10.620916 -7.511164 -15.800523 1.026245 1.026216 -6.445531 -1.688529 -7.313629 0.000000 0.000000 0.000000 -11.788428 -5.974949 -4.251237 1.805691 -0.781400 -3.905029 0.000000 0.000000 0.000000 23.045594 -14.415514 -15.140103 1.821906 2.691406 13.209549 0.000000 0.000000 0.000000 0.281658 -5.417304 -3.623156 6.522015 0.965295 4.732203 0.000000 0.000000 0.000000 6.186588 15.024089 9.852457 -16.948415 -5.774392 3.058091 0.000000 0.000000 0.000000 -9.819176 11.891891 4.351249 -10.533536 46.735518 -6.458721 -63.278637 24.745317 -7.490647 -26.887905 5.804907 -62.387349 12.234842 18.316643 4.441636 101.238928 -6.263335 -27.190468 0.000000 0.000000 0.000000 43.238734 46.157103 8.718599 30.647350 26.224103 -57.157826 0.000000 0.000000 0.000000 6.063712 38.600485 -35.642998 4.445110 2.125103 -6.329345 0.000000 0.000000 0.000000 36.910453 44.652883 0.138904 6.173448 16.345438 -39.255357 0.000000 0.000000 0.000000 -48.555782 -10.365971 -4.576886 29.575491 8.526470 7.666074 0.000000 0.000000 0.000000 
-0.025649 0.719330 -0.000732 5.107231 33.044081 -22.503770 3.023119 -8.341766 -33.583530 -28.616029 0.685881 39.752755 -1.088575 -1.555249 0.781560 0.000000 0.000000 0.000000 -32.306919 -15.256661 -32.320000 18.922328 -15.679980 54.260854 2.791644 6.070759 -1.607920 0.000000 0.000000 0.000000 -5.846238 -15.417606 79.934283 -12.414218 0.646253 -23.862938 9.446408 14.895354 12.060951 1.807413 -0.236700 0.368429 0.000000 0.000000 0.000000 1.178370 -17.111099 8.144643 -10.866631 -56.649284 -19.676607 21.843227 -75.476189 -13.267753 7.336370 -10.519709 -6.712469 -15.178022 0.316596 0.838081 -7.057149 -1.272769 -6.054159 0.000000 0.000000 0.000000 -11.602339 -6.142801 -4.339078 1.932057 -1.023192 -5.136775 0.000000 0.000000 0.000000 23.050490 -14.865840 -15.798087 1.065222 3.045855 14.808276 0.000000 0.000000 0.000000 0.683489 -5.945927 -3.978493 5.990490 1.127251 6.280146 0.000000 0.000000 0.000000 6.685034 14.473456 9.218287 -17.218952 -5.515174 3.217759 0.000000 0.000000 0.000000 -9.843163 11.598762 4.241278 -10.261126 46.767839 -6.435024 -63.940571 25.439538 -8.094208 -26.881052 6.550208 -61.704205 11.475410 17.435739 3.900535 99.141195 1.939584 -26.628590 0.000000 0.000000 0.000000 44.430995 48.378509 9.544461 31.475087 26.130639 -57.355942 0.000000 0.000000 0.000000 6.179697 38.773869 -36.274076 2.738467 1.128077 -3.523292 0.000000 0.000000 0.000000 37.413629 46.296204 -0.097553 6.680919 16.079042 -39.000513 0.000000 0.000000 0.000000 -47.559856 -9.663323 -5.632017 27.997691 7.610272 7.067815 0.000000 0.000000 0.000000 
